Coordinates
version=1
nRows=18
nColumns=38
inDegrees=no

Units are S.I. units (second, meters, Newtons, ...)
If the header above contains a line with 'inDegrees', this indicates whether rotational values are in degrees (yes) or radians (no).

endheader
time	pelvis_tilt	pelvis_list	pelvis_rotation	pelvis_tx	pelvis_ty	pelvis_tz	hip_flexion_r	hip_adduction_r	hip_rotation_r	knee_angle_r	ankle_angle_r	subtalar_angle_r	mtp_angle_r	hip_flexion_l	hip_adduction_l	hip_rotation_l	knee_angle_l	ankle_angle_l	subtalar_angle_l	mtp_angle_l	lumbar_extension	lumbar_bending	lumbar_rotation	arm_flex_r	arm_add_r	arm_rot_r	elbow_flex_r	pro_sup_r	wrist_flex_r	wrist_dev_r	arm_flex_l	arm_add_l	arm_rot_l	elbow_flex_l	pro_sup_l	wrist_flex_l	wrist_dev_l
2.55	-0.0499559	0.0451862	-0.0394187	0.877002	0.964176	-0.26287	0.243343	0.120416	0.264948	-0.772914	0.414296	-0.0371035	0.00141215	0.479538	0.0181375	-0.00939851	-1.30915	0.0779738	-0.0750876	-0.00272192	-0.175088	-0.0366358	0.0318695	-0.287722	-0.274678	0.0573118	1.59086	1.75998	-0.0038772	-0.00480395	-0.599229	-0.249514	0.0587001	1.83493	2.06471	0.0120258	-0.00886156
2.55833	-0.0548068	0.0538214	-0.0360148	0.878016	0.969118	-0.263661	0.211961	0.10383	0.265655	-0.736063	0.396864	-0.0371035	0.00141215	0.492274	0.0315769	-0.00486045	-1.26367	0.0887272	-0.0750876	-0.00272192	-0.165903	-0.0475373	0.0418445	-0.283032	-0.272965	0.0563141	1.62251	1.75126	-0.0038772	-0.00480395	-0.619674	-0.258809	0.0573548	1.84923	2.06453	0.0120258	-0.00886156
2.56667	-0.0596727	0.0625396	-0.0323884	0.879303	0.974473	-0.264596	0.179747	0.0864907	0.264951	-0.696503	0.37285	-0.0371035	0.00141215	0.501924	0.0460141	0.000324224	-1.21256	0.0980639	-0.0750876	-0.00272192	-0.156185	-0.058248	0.0513184	-0.28051	-0.272885	0.0566887	1.65412	1.74481	-0.0038772	-0.00480395	-0.639839	-0.266628	0.0546857	1.86331	2.06469	0.0120258	-0.00886156
2.575	-0.0645065	0.0712233	-0.0286225	0.880824	0.980144	-0.265661	0.147084	0.0686743	0.262604	-0.654923	0.342019	-0.0371035	0.00141215	0.508527	0.0611831	0.0062697	-1.15611	0.106005	-0.0750876	-0.00272192	-0.146169	-0.0686449	0.0603052	-0.279821	-0.274369	0.0584713	1.68517	1.74093	-0.0038772	-0.00480395	-0.659452	-0.27279	0.0509896	1.87651	2.06498	0.0120258	-0.00886156
2.58333	-0.0693095	0.0797829	-0.0247835	0.882533	0.986026	-0.266837	0.114471	0.0506322	0.258445	-0.612195	0.304482	-0.0371035	0.00141215	0.512204	0.0768195	0.013037	-1.09467	0.112579	-0.0750876	-0.00272192	-0.136043	-0.0786441	0.0688313	-0.280719	-0.277254	0.0615037	1.71533	1.73977	-0.0038772	-0.00480395	-0.678268	-0.277228	0.0466124	1.88843	2.06504	0.0120258	-0.00886156
2.59167	-0.0741175	0.0881388	-0.0209088	0.884382	0.992008	-0.268107	0.0825009	0.0326035	0.252425	-0.569353	0.260758	-0.0371035	0.00141215	0.513151	0.0926633	0.0206544	-1.02864	0.117831	-0.0750876	-0.00272192	-0.125942	-0.0881714	0.076939	-0.283066	-0.281304	0.0654551	1.74444	1.74132	-0.0038772	-0.00480395	-0.696057	-0.279976	0.0419119	1.89888	2.06442	0.0120258	-0.00886156
2.6	-0.0789728	0.0961875	-0.017012	0.886319	0.997979	-0.26946	0.0517702	0.0148458	0.244672	-0.527505	0.211788	-0.0371035	0.00141215	0.51162	0.108442	0.0291478	-0.958539	0.121825	-0.0750876	-0.00272192	-0.115975	-0.0971212	0.0847017	-0.286836	-0.286243	0.0698582	1.77249	1.74545	-0.0038772	-0.00480395	-0.712591	-0.281161	0.0372352	1.90788	2.06272	0.0120258	-0.00886156
2.60833	-0.0838836	0.103764	-0.013103	0.888295	1.00383	-0.270887	0.0227685	-0.00232791	0.23555	-0.487701	0.158876	-0.0371035	0.00141215	0.507894	0.123844	0.0385652	-0.885051	0.124656	-0.0750876	-0.00272192	-0.10627	-0.105318	0.0922435	-0.292099	-0.291773	0.0741587	1.79955	1.75186	-0.0038772	-0.00480395	-0.727638	-0.280988	0.0329047	1.91555	2.05965	0.0120258	-0.00886156
2.61667	-0.088797	0.110629	-0.00921133	0.890264	1.00947	-0.272375	-0.00419119	-0.0185346	0.225672	-0.450844	0.103605	-0.0371035	0.00141215	0.502262	0.138506	0.0489789	-0.809067	0.126448	-0.0750876	-0.00272192	-0.0970003	-0.112514	0.0997401	-0.29898	-0.29759	0.0777786	1.82571	1.76009	-0.0038772	-0.00480395	-0.740967	-0.279723	0.0292006	1.92208	2.05519	0.0120258	-0.00886156
2.625	-0.0935803	0.116484	-0.00540447	0.892188	1.01481	-0.27391	-0.0289915	-0.0333279	0.21587	-0.417671	0.047711	-0.0371035	0.00141215	0.495007	0.152016	0.0604599	-0.731694	0.127368	-0.0750876	-0.00272192	-0.0883973	-0.118405	0.107396	-0.307602	-0.303405	0.080193	1.85104	1.76957	-0.0038772	-0.00480395	-0.752377	-0.277673	0.0263348	1.9277	2.04957	0.0120258	-0.00886156
2.63333	-0.0980195	0.121005	-0.0017923	0.894036	1.01978	-0.275464	-0.0516787	-0.0462281	0.207099	-0.388792	-0.00705714	-0.0371035	0.00141215	0.486399	0.163936	0.0730316	-0.654244	0.127642	-0.0750876	-0.00272192	-0.0807414	-0.122685	0.115389	-0.318007	-0.308952	0.08102	1.87553	1.77963	-0.0038772	-0.00480395	-0.761729	-0.275144	0.0244164	1.93264	2.04325	0.0120258	-0.00886156
2.64167	-0.101838	0.123893	0.00148472	0.895788	1.02431	-0.277001	-0.0723951	-0.0567705	0.200306	-0.364754	-0.0590771	-0.0371035	0.00141215	0.476693	0.17384	0.0866199	-0.578196	0.127569	-0.0750876	-0.00272192	-0.0743188	-0.125088	0.123795	-0.330075	-0.314008	0.0801143	1.89899	1.78962	-0.0038772	-0.00480395	-0.768999	-0.272392	0.0234111	1.93711	2.03683	0.0120258	-0.00886156
2.65	-0.104738	0.124921	0.00428221	0.897435	1.02838	-0.278476	-0.0913017	-0.0645657	0.196259	-0.346083	-0.106982	-0.0371035	0.00141215	0.466141	0.181371	0.101021	-0.505133	0.127524	-0.0750876	-0.00272192	-0.0693663	-0.125453	0.132502	-0.343457	-0.31842	0.0776476	1.92102	1.7989	-0.0038772	-0.00480395	-0.774317	-0.269565	0.0231098	1.94125	2.03092	0.0120258	-0.00886156
2.65833	-0.106446	0.123987	0.00648688	0.898984	1.03193	-0.279839	-0.108518	-0.0693612	0.195394	-0.333297	-0.149761	-0.0371035	0.00141215	0.455001	0.186302	0.1159	-0.436646	0.127931	-0.0750876	-0.00272192	-0.0660276	-0.123755	0.141156	-0.357535	-0.322115	0.0741397	1.94102	1.80692	-0.0038772	-0.00480395	-0.777975	-0.26667	0.0231226	1.94515	2.026	0.0120258	-0.00886156
2.66667	-0.106765	0.121138	0.00804437	0.900455	1.03496	-0.281043	-0.124099	-0.0710823	0.197686	-0.32688	-0.186817	-0.0371035	0.00141215	0.443514	0.188589	0.130834	-0.374237	0.129229	-0.0750876	-0.00272192	-0.064358	-0.120123	0.14917	-0.371474	-0.325102	0.0703875	1.95822	1.81328	-0.0038772	-0.00480395	-0.780391	-0.263568	0.0229317	1.94883	2.02236	0.0120258	-0.00886156
2.675	-0.105529	0.116548	0.008976	0.901862	1.03745	-0.282056	-0.138029	-0.0698421	0.202614	-0.327268	-0.217946	-0.0371035	0.00141215	0.431886	0.188386	0.145368	-0.319227	0.131829	-0.0750876	-0.00272192	-0.0643657	-0.11481	0.15587	-0.384414	-0.327427	0.0672227	1.97185	1.81778	-0.0038772	-0.00480395	-0.781981	-0.260068	0.0220408	1.95223	2.02001	0.0120258	-0.00886156
2.68333	-0.102585	0.11046	0.00936736	0.903201	1.03941	-0.282865	-0.150258	-0.0659012	0.209222	-0.334842	-0.243244	-0.0371035	0.00141215	0.420257	0.18601	0.159092	-0.272719	0.136112	-0.0750876	-0.00272192	-0.0661564	-0.108112	0.160845	-0.39586	-0.329093	0.06504	1.98148	1.82053	-0.0038772	-0.00480395	-0.782917	-0.256122	0.0202646	1.9553	2.01874	0.0120258	-0.00886156
2.69167	-0.097841	0.103164	0.00935129	0.904458	1.04083	-0.283477	-0.160683	-0.0596406	0.216248	-0.349868	-0.263045	-0.0371035	0.00141215	0.408689	0.181888	0.171659	-0.23547	0.142299	-0.0750876	-0.00272192	-0.0698409	-0.100353	0.163821	-0.405523	-0.330083	0.0639904	1.98685	1.82176	-0.0038772	-0.00480395	-0.783243	-0.251738	0.0175775	1.95795	2.01816	0.0120258	-0.00886156
